<svg width="44" height="53" viewBox="0 0 44 53" fill="none" xmlns="http://www.w3.org/2000/svg">
<path d="M0.0499486 35.692C-0.00744409 35.7487 -0.020198 44.2177 0.0371947 44.7592L0.0818334 45.1685H1.21693H2.35841L2.37116 43.3865L2.3903 41.6109L4.08019 41.5731C6.39503 41.5164 6.87968 41.3905 7.68955 40.6286C8.16783 40.1752 8.39102 39.7471 8.49305 39.1048C8.74813 37.4803 7.8426 36.1706 6.21648 35.8054C5.7956 35.7109 0.132849 35.6039 0.0499486 35.692ZM5.44486 37.6125C5.7956 37.7888 5.91676 37.8896 6.03154 38.0974C6.27387 38.5381 6.17184 39.1363 5.78922 39.4763C5.38747 39.8415 4.86456 39.9423 3.40423 39.9423H2.37116L2.36479 38.6452L2.35203 37.3544L3.67844 37.3732L5.01123 37.3921L5.44486 37.6125Z" fill="#253D7F"/>
<path d="M13.333 35.9253C13.1226 36.4039 11.471 40.0181 11.2478 40.4967C11.1266 40.7485 11.031 40.9626 11.031 40.9815C11.031 40.9941 10.9481 41.183 10.846 41.4034C10.2785 42.6186 9.18164 45.068 9.18164 45.1121C9.18164 45.1499 9.6918 45.1625 10.3741 45.1562L11.5666 45.1373L12.0194 44.0857L12.4658 43.0279H14.6403H16.8149L17.2868 44.0794L17.765 45.1373L18.9894 45.1562C19.7228 45.1625 20.2138 45.1499 20.2138 45.1121C20.2138 45.0806 20.0289 44.6587 19.8057 44.1802C19.5825 43.7017 19.1616 42.8012 18.8746 42.1779C18.5877 41.5545 18.2688 40.8745 18.1668 40.6667C18.0711 40.4589 17.8607 40.0055 17.7076 39.6592C17.5482 39.3129 17.2613 38.6958 17.0636 38.2866C16.8659 37.8773 16.7065 37.531 16.7065 37.5184C16.7065 37.4869 15.9667 35.9253 15.8838 35.7868C15.8392 35.7112 15.6224 35.6924 14.6403 35.6735L13.4478 35.6609L13.333 35.9253ZM14.9209 38.7525C15.0676 39.0233 15.3673 39.7348 15.7563 40.6982C15.8647 40.9563 15.9795 41.2019 16.0177 41.246C16.0688 41.3089 16.056 41.3278 15.9667 41.3341C15.4885 41.3467 13.2948 41.3152 13.2693 41.2963C13.2246 41.246 13.3777 40.8745 14.2896 38.8218L14.6276 38.0473L14.7041 38.2614C14.7424 38.3747 14.8444 38.5951 14.9209 38.7525Z" fill="#253D7F"/>
<path d="M21.285 36.0824C21.2722 36.3217 21.2722 38.4563 21.285 40.8364L21.2977 45.1685H22.3499C23.147 45.1685 23.4021 45.1496 23.4085 45.0866C23.4085 45.0488 23.4085 44.224 23.4021 43.2606C23.3957 42.2972 23.4149 40.7986 23.4404 39.936L23.485 38.3618L23.6699 38.9474C23.772 39.2685 23.8676 39.5708 23.8804 39.6148C23.8995 39.6589 23.9059 39.6967 23.9059 39.7093C23.8995 39.7156 23.9442 39.8352 23.9952 39.9737C24.1418 40.3767 24.4352 41.3212 24.5181 41.6738C24.5245 41.7053 24.55 41.7809 24.5691 41.8313C24.5882 41.8816 24.8178 42.6498 25.0729 43.5313L25.5384 45.137L26.6289 45.1559L27.7193 45.1685L27.8979 44.5262C27.9935 44.1673 28.0956 43.8462 28.1211 43.8147C28.1466 43.7769 28.1848 43.6636 28.2103 43.5628C28.2996 43.1347 28.3251 43.0528 28.4335 42.7191C28.4973 42.5239 28.5802 42.2531 28.6185 42.1146C28.6631 41.9761 28.7524 41.6801 28.8225 41.4598C28.8927 41.2394 28.9501 41.019 28.9501 40.9686C28.9501 40.9245 28.9756 40.8364 29.0075 40.7734C29.0393 40.7168 29.1031 40.5404 29.1414 40.383C29.186 40.2256 29.2434 40.0304 29.2689 39.9423C29.2944 39.8541 29.3518 39.6589 29.3965 39.5015C29.5559 38.9348 29.6069 38.7711 29.6834 38.6011C29.7536 38.4374 29.7663 38.4563 29.7982 38.8844C29.8237 39.1363 29.8428 40.6475 29.8428 42.2405V45.137L30.895 45.1559L31.9472 45.1685V40.4775C31.9472 37.8959 31.9536 35.7676 31.9664 35.7361C31.9728 35.7109 31.2139 35.6858 30.2701 35.6732C28.9373 35.6606 28.5611 35.6732 28.5419 35.7361C28.5292 35.7802 28.3443 36.3973 28.1274 37.1088C27.9106 37.8203 27.7193 38.4563 27.7066 38.5255C27.6874 38.5948 27.5025 39.2056 27.2857 39.8793C27.0752 40.553 26.8967 41.1323 26.8839 41.1701C26.8712 41.2016 26.8329 41.3149 26.7947 41.4094C26.75 41.5101 26.7181 41.6109 26.7181 41.6424C26.7181 41.6738 26.6926 41.7116 26.6607 41.7368C26.6225 41.7557 26.5523 41.5983 26.4886 41.3905C26.4312 41.1827 26.3546 40.9938 26.3291 40.9749C26.2973 40.956 26.2717 40.8931 26.2717 40.8364C26.2717 40.7356 26.0613 40.0241 25.7998 39.2182C25.7169 38.9726 25.6149 38.6515 25.5703 38.494C25.532 38.3366 25.4427 38.0533 25.379 37.8644C25.3152 37.6755 25.2004 37.304 25.1239 37.0458C25.041 36.7877 24.9134 36.3721 24.8369 36.1328L24.6903 35.6921L22.994 35.6732L21.3041 35.6606L21.285 36.0824Z" fill="#253D7F"/>
<path d="M37.0171 36.2084C36.8832 36.5169 36.2328 37.9399 35.576 39.3756C34.9255 40.8112 34.2304 42.3413 34.0327 42.7757C33.8414 43.2102 33.5226 43.9091 33.3249 44.3373C33.1272 44.7655 32.9678 45.1244 32.9678 45.1433C32.9678 45.1559 33.5162 45.1685 34.1794 45.1685C35.2826 45.1685 35.3974 45.1559 35.4357 45.0551C35.4548 44.9984 35.5186 44.8347 35.5823 44.6962C35.6461 44.5577 35.7673 44.2617 35.8565 44.0351C35.9458 43.8084 36.0797 43.4936 36.1563 43.3235L36.2902 43.0276L38.4647 43.0402L40.6393 43.0591L40.8688 43.5691C41.1303 44.1547 41.2642 44.4506 41.4428 44.8662L41.5703 45.1685H42.7883C43.7321 45.1685 43.9999 45.1496 43.9999 45.0866C43.9999 45.0425 43.7959 44.5703 43.5472 44.0351C43.3048 43.4999 43.0625 42.9709 43.0115 42.8702C42.7755 42.3602 42.4376 41.6361 42.2781 41.296C42.1761 41.0883 42.0039 40.7168 41.8955 40.4775C41.7807 40.2319 41.6022 39.8541 41.5002 39.6274C41.0729 38.7207 40.9454 38.4437 40.7796 38.0848C40.6839 37.877 40.4862 37.4488 40.3395 37.1403C40.1865 36.8254 39.9697 36.3658 39.8485 36.1139L39.6381 35.6606H38.452H37.2658L37.0171 36.2084ZM38.9302 39.3441C39.096 39.7597 39.3256 40.3767 39.4404 40.7105L39.6572 41.3275H38.3499C37.6357 41.3275 37.049 41.3086 37.049 41.2897C37.049 41.2709 37.0873 41.1638 37.1383 41.0568C37.285 40.7168 37.3743 40.4964 37.6038 39.9423C37.725 39.6463 37.8653 39.3063 37.9227 39.1867C37.9737 39.067 38.063 38.8655 38.114 38.7459C38.165 38.6263 38.2479 38.4437 38.2989 38.3429C38.3499 38.2422 38.3882 38.1162 38.3882 38.0596C38.3946 38.0029 38.4456 38.0974 38.5157 38.2737C38.5795 38.4437 38.7644 38.9285 38.9302 39.3441Z" fill="#253D7F"/>
<path d="M23.8612 49.2615C23.6317 49.4001 23.5424 49.5764 23.5233 49.9479C23.5105 50.0864 23.4914 50.1934 23.4722 50.1934C23.2363 50.1745 23.1598 50.2186 23.1343 50.3949C23.1024 50.609 23.1725 50.6846 23.3893 50.6531L23.536 50.6342L23.5233 51.7739C23.5169 52.4035 23.5296 52.9136 23.5551 52.9136C23.5743 52.9136 23.6954 52.9136 23.8166 52.9136H24.0398L24.0525 51.7928L24.0717 50.6783L24.314 50.6594C24.5372 50.6405 24.5499 50.6279 24.5499 50.4327C24.5499 50.2501 24.5244 50.2186 24.3459 50.1683C24.1737 50.1179 24.1291 50.0738 24.1163 49.9038C24.0972 49.6897 24.0781 49.696 24.5818 49.6771C24.6839 49.6708 24.7158 49.6204 24.7285 49.4441C24.7476 49.2489 24.7221 49.2112 24.601 49.1734C24.3331 49.1041 24.0717 49.1356 23.8612 49.2615Z" fill="#253D7F"/>
<path d="M30.8509 49.2173C30.4301 49.337 30.2324 49.4818 30.0921 49.784C29.9518 50.0989 29.939 50.3255 30.0602 50.6026C30.226 50.993 30.4938 51.1504 31.5141 51.4274C31.9287 51.5408 32.0753 51.6604 32.0753 51.8745C32.0753 52.1138 31.7947 52.2838 31.4057 52.2838C31.0104 52.2838 30.7808 52.139 30.6724 51.8178C30.6086 51.61 30.5895 51.6038 30.3663 51.6289C29.8434 51.6982 29.8434 51.6982 29.888 51.9249C29.939 52.2082 30.1495 52.5671 30.3472 52.712C30.8701 53.0898 32.1008 53.0709 32.5408 52.6742C32.7385 52.5042 32.9043 52.1201 32.9043 51.8493C32.9043 51.1819 32.5217 50.8293 31.5269 50.5837C31.0167 50.4578 30.7362 50.3192 30.7362 50.1807C30.7362 50.0422 30.9721 49.8848 31.2272 49.847C31.5779 49.8029 31.8075 49.91 31.9223 50.1807C31.9924 50.3381 32.0498 50.3948 32.1136 50.3696C32.171 50.3507 32.3432 50.3318 32.4962 50.3318C32.7768 50.3318 32.7768 50.3318 32.7768 50.1052C32.7768 49.8155 32.5281 49.4944 32.1837 49.3307C31.833 49.167 31.2336 49.1166 30.8509 49.2173Z" fill="#253D7F"/>
<path d="M11.7002 49.2803C11.6811 49.3244 11.6747 50.1618 11.6811 51.1504L11.7002 52.9449L11.8533 52.9638C11.9362 52.9764 12.0765 52.9512 12.153 52.9072C12.2742 52.8505 12.3443 52.8442 12.4655 52.9009C12.6887 53.0016 13.1669 52.9953 13.3774 52.8883C13.811 52.6616 14.0406 52.2082 14.0533 51.5597C14.0597 50.7852 13.6898 50.2752 13.0522 50.1807C12.8991 50.1555 12.695 50.1681 12.593 50.2059C12.3634 50.2941 12.2487 50.1492 12.2423 49.7652C12.2359 49.2866 12.1913 49.1985 11.9489 49.1985C11.8278 49.1985 11.713 49.2362 11.7002 49.2803ZM13.0585 50.653C13.3646 50.76 13.5177 51.056 13.5177 51.5534C13.5177 52.2019 13.2881 52.5357 12.8481 52.5357C12.4208 52.5357 12.1785 52.1894 12.1785 51.5723C12.1785 51.1504 12.3379 50.8356 12.6249 50.6971C12.7461 50.6341 12.8481 50.5837 12.8545 50.5837C12.8608 50.5837 12.9501 50.6152 13.0585 50.653Z" fill="#253D7F"/>
<path d="M26.6673 51.0431C26.2784 52.0506 25.9531 52.8943 25.9531 52.9132C25.9531 52.9321 26.1189 52.951 26.323 52.9636C26.7566 52.9825 26.7949 52.9573 26.9671 52.4661L27.0818 52.1261L27.7833 52.1072L28.4848 52.0883L28.5868 52.3276C28.6442 52.4598 28.7207 52.6424 28.759 52.7369C28.8164 52.9069 28.8355 52.9132 29.2755 52.9132C29.5242 52.9132 29.7155 52.888 29.7028 52.8628C29.6964 52.8376 29.352 52.0002 28.9503 51.0053L28.2169 49.1982H27.8024H27.3879L26.6673 51.0431ZM27.93 50.552C27.93 50.6086 28.0001 50.8164 28.083 51.0242L28.2425 51.402H27.8024H27.3624L27.5282 50.9298C27.6558 50.5771 27.7259 50.4575 27.8152 50.4575C27.879 50.4575 27.93 50.5016 27.93 50.552Z" fill="#253D7F"/>
<path d="M33.2104 49.4502C33.204 49.5887 33.1976 49.7461 33.1976 49.8091C33.1913 49.8973 33.2614 49.9099 33.7078 49.8973C34.218 49.8847 34.2307 49.8847 34.269 50.0484C34.2945 50.1365 34.3072 50.8292 34.3072 51.5785L34.3009 52.9385L34.607 52.9574C34.7728 52.97 34.9513 52.9511 34.9959 52.9259C35.0661 52.8819 35.0852 52.5607 35.0788 51.4147V49.9665L35.3339 49.9224C35.4678 49.8973 35.7357 49.891 35.9206 49.9036L36.2522 49.9224V49.6454C36.2522 49.3306 36.3606 49.2424 36.4882 49.4628C36.5456 49.5698 36.5711 50.061 36.5902 51.2762L36.6093 52.9448L36.9856 52.9574C37.1896 52.97 37.3746 52.9511 37.3937 52.9259C37.4064 52.9007 37.4319 52.5418 37.4447 52.1326L37.4638 51.3896L37.7062 51.421C38.025 51.4651 38.0505 51.4903 38.5798 52.2585C39.09 53.0015 38.9114 52.9259 40.1358 52.9259C40.8436 52.9259 40.8309 52.9322 41.0094 52.3655L41.086 52.0948H41.7938H42.5016L42.61 52.3403C42.6738 52.4789 42.7376 52.6552 42.7567 52.7433C42.795 52.8819 42.846 52.9007 43.1648 52.9385C43.3689 52.9637 43.5793 52.9637 43.6304 52.9448C43.7069 52.9133 43.5857 52.5544 42.9799 51.0684L42.2402 49.2298L41.8193 49.2109L41.4048 49.192L41.29 49.4943C40.799 50.7914 40.021 52.7056 39.97 52.7559C39.919 52.8 39.9126 52.7937 39.9445 52.7433C39.97 52.693 39.9572 52.6615 39.9062 52.6615C39.8616 52.6615 39.7213 52.4852 39.6001 52.2711C39.479 52.0633 39.2685 51.7674 39.1346 51.6162L38.8923 51.3455L39.1537 51.1818C39.5172 50.9551 39.6639 50.6906 39.6639 50.2625C39.6639 49.828 39.4917 49.5384 39.1218 49.3558C38.8795 49.2361 38.7201 49.2298 36.0481 49.2109L33.2232 49.192L33.2104 49.4502ZM38.7329 50.0106C38.7966 50.061 38.8349 50.1932 38.8349 50.338C38.8349 50.678 38.6181 50.7851 37.9485 50.7662L37.4447 50.7536V50.3254V49.891L38.0378 49.9099C38.414 49.9224 38.6691 49.9602 38.7329 50.0106ZM41.8831 50.4703C41.915 50.5143 41.9787 50.678 42.0234 50.8292C42.0616 50.9803 42.1318 51.1566 42.17 51.2196C42.2721 51.3833 42.2147 51.4084 41.781 51.3896L41.392 51.3707L41.5642 50.8795C41.7364 50.3821 41.7683 50.338 41.8831 50.4703Z" fill="#253D7F"/>
<path d="M1.2229 50.2061C1.10812 50.2313 0.942315 50.3194 0.853037 50.4013L0.69999 50.5461L0.712744 50.3887C0.731875 50.2565 0.706367 50.2376 0.495927 50.2187L0.253603 50.1998V51.4906C0.253603 52.2021 0.253603 52.8066 0.247226 52.8318C0.240849 52.9262 0.432158 52.9955 0.591582 52.9514L0.76376 52.9136V52.114C0.76376 50.9239 0.91043 50.6154 1.4461 50.6595C1.80958 50.6909 1.84784 50.8169 1.84147 51.9629L1.83509 52.9325L2.09655 52.9577L2.358 52.9829V52.051C2.358 51.245 2.37713 51.0939 2.47916 50.9176C2.62583 50.6846 2.79801 50.6217 3.09773 50.6721C3.39745 50.7287 3.45484 50.968 3.42933 52.0447L3.4102 52.9011L3.63339 52.9325C3.75456 52.9451 3.87572 52.9451 3.9076 52.9325C3.965 52.9011 3.97137 51.0561 3.91398 50.7791C3.79282 50.1746 2.90642 49.9668 2.42177 50.4265C2.28148 50.5587 2.24322 50.5713 2.21133 50.4957C2.12205 50.2628 1.6119 50.1117 1.2229 50.2061Z" fill="#253D7F"/>
<path d="M5.33055 50.2122C5.19663 50.2437 5.00532 50.3255 4.90329 50.4011C4.71836 50.527 4.42502 50.9993 4.45053 51.1126C4.46328 51.1378 4.44415 51.1945 4.41226 51.2385C4.32299 51.3456 4.43777 52.1138 4.58444 52.3971C4.99895 53.2031 6.41463 53.1842 6.81 52.3656C6.88653 52.2019 6.8929 52.139 6.83551 52.1012C6.7271 52.0319 6.75899 51.7045 6.87377 51.7486C6.9503 51.7738 6.95667 51.7171 6.91841 51.4211C6.86102 50.9615 6.79087 50.7852 6.58043 50.5648C6.26158 50.2311 5.80882 50.1052 5.33055 50.2122ZM5.97462 50.6781C6.12129 50.7159 6.26796 50.9111 6.32535 51.1315C6.36362 51.2763 6.35724 51.2763 5.76418 51.2763C5.25402 51.2763 5.15837 51.2574 5.10735 51.163C5.0117 50.9867 5.16475 50.7537 5.41983 50.6656C5.63664 50.5963 5.68766 50.5963 5.97462 50.6781ZM6.51666 51.7612C6.4784 51.7738 6.45289 51.8178 6.47202 51.843C6.51666 51.9123 6.1468 52.4475 6.01926 52.4979C5.96187 52.5168 5.80244 52.5356 5.66215 52.5356C5.45171 52.5356 5.36881 52.4979 5.19663 52.3216C5.08185 52.2019 4.97344 52.013 4.96068 51.9123L4.9288 51.7171L5.76418 51.7234C6.22332 51.7234 6.5613 51.7423 6.51666 51.7612Z" fill="#253D7F"/>
<path d="M8.33407 50.2313C8.20653 50.2817 8.05986 50.3509 8.00885 50.3887C7.9387 50.4454 7.91319 50.4328 7.88769 50.332C7.86218 50.2376 7.80478 50.2061 7.63261 50.2061C7.42217 50.2061 7.40941 50.2187 7.39028 50.4391C7.37753 50.5713 7.37115 51.1758 7.38391 51.7866L7.40941 52.9011L7.57521 52.9325C7.89406 52.9955 7.90682 52.9577 7.90682 52.1329C7.90682 50.9743 8.04711 50.6469 8.54451 50.6469C8.95902 50.6469 8.99728 50.7665 8.98452 51.944L8.97815 52.9388L9.24598 52.9451H9.51381L9.50743 52.0825C9.49468 51.1569 9.56483 50.8421 9.80715 50.7161C9.99208 50.6217 10.2854 50.628 10.4321 50.735C10.5405 50.8169 10.5533 50.9176 10.566 51.881L10.5724 52.9325L10.8338 52.9577L11.0953 52.9829V51.9062C11.0953 50.7287 11.0443 50.4894 10.7446 50.2943C10.6425 50.225 10.4512 50.1872 10.228 50.1872C9.93469 50.1872 9.83904 50.2187 9.63497 50.3824C9.44367 50.5335 9.3799 50.5587 9.34801 50.4894C9.25236 50.2439 8.71031 50.1054 8.33407 50.2313Z" fill="#253D7F"/>
<path d="M15.3422 50.2122C14.9532 50.3066 14.7301 50.5018 14.5324 50.9363C14.3602 51.3078 14.3538 51.3645 14.4048 51.736C14.5005 52.3971 14.7683 52.7686 15.2721 52.9323C15.897 53.1338 16.6176 52.8693 16.8281 52.353C16.8982 52.1956 16.8918 52.1515 16.7962 52.0382C16.675 51.906 16.5347 51.8493 16.6113 51.9689C16.6304 52.0004 16.5921 52.0319 16.522 52.0319C16.4391 52.0319 16.3562 52.1075 16.2924 52.2208C16.1649 52.4601 16.0182 52.5356 15.6675 52.5356C15.4188 52.5356 15.355 52.5041 15.1828 52.3152C15.0744 52.1893 14.9851 52.0508 14.9851 52.0004C14.9851 51.9563 14.966 51.8745 14.9469 51.8178C14.915 51.7297 15.017 51.7171 15.8333 51.7171C16.5156 51.7171 16.7707 51.736 16.7898 51.7926C16.8089 51.8556 16.8408 51.8556 16.8918 51.8052C16.9492 51.7548 16.9556 51.6163 16.9237 51.3393C16.8345 50.5207 16.133 50.0233 15.3422 50.2122ZM15.9098 50.6466C16.0565 50.6466 16.2605 50.8607 16.3243 51.0748L16.3817 51.2826L15.693 51.27L14.9979 51.2574L15.0553 51.0685C15.0808 50.9678 15.1382 50.8481 15.1828 50.7978C15.2721 50.697 15.6165 50.5837 15.7376 50.6214C15.7886 50.634 15.8652 50.6466 15.9098 50.6466Z" fill="#253D7F"/>
<path d="M18.2047 50.2186C18.1345 50.2564 18.0453 50.3383 18.0006 50.3886C17.9305 50.4768 17.9241 50.4705 17.9177 50.3446C17.9177 50.2249 17.8858 50.206 17.669 50.206C17.4395 50.206 17.4203 50.2186 17.4012 50.4075C17.3884 50.5209 17.3884 51.1316 17.3948 51.7613L17.4203 52.9136H17.669H17.9177V52.1391C17.9177 50.9553 18.0453 50.6657 18.5235 50.7287C18.785 50.7664 18.7914 50.7601 18.8615 50.546C18.9189 50.3634 18.9125 50.3194 18.8233 50.2753C18.6192 50.1745 18.3322 50.1431 18.2047 50.2186Z" fill="#253D7F"/>
<path d="M21.2786 50.2249C20.6664 50.4138 20.3667 50.9239 20.4177 51.7046C20.4687 52.5295 20.896 52.9766 21.6421 52.9766C22.5157 52.9766 22.9557 52.4854 22.9557 51.522C22.9557 51.1065 22.8601 50.8231 22.6177 50.5335C22.4009 50.2627 21.6803 50.099 21.2786 50.2249ZM21.8971 50.6468C22.0502 50.6468 22.3116 50.9491 22.3818 51.2135C22.4264 51.3709 22.4392 51.6102 22.4137 51.8054C22.2861 52.6932 21.2148 52.8191 20.9789 51.9754C20.8194 51.4024 21.0235 50.8042 21.4253 50.6657C21.5464 50.6216 21.6867 50.6027 21.7313 50.6216C21.7824 50.6342 21.8525 50.6468 21.8971 50.6468Z" fill="#253D7F"/>
<path d="M5.67846 0.00260122C2.17242 -0.0908219 0.114258 2.34914 0.114258 4.59389L0.114258 16.3355V28.9023C0.114258 31.507 2.08969 33.226 4.23343 33.226L21.7337 33.2502H39.0426C41.6179 33.2502 43.8855 30.7732 43.8855 28.8952V16.4082V4.62451C43.8855 1.77694 41.1318 0.00260122 38.4118 0.00260122H22.2087H5.67846Z" fill="#FFCC29"/>
<path d="M6.26435 2.62911C5.98591 2.70993 5.42801 2.96396 5.11997 3.14459C4.55492 3.47593 3.97198 4.1244 3.66171 4.66534C3.17131 5.52033 3.04118 5.80845 3.17563 12.7488L3.20978 19.4065L4.53643 18.073C5.26526 17.3376 7.09965 15.5031 8.61465 13.9918C10.1215 12.4805 12.7911 9.80555 14.5436 8.05185C16.2879 6.29815 18.2615 4.32624 18.9167 3.66355L20.1205 2.47556L13.4463 2.48364C7.31257 2.48364 6.73113 2.49981 6.26435 2.62911Z" fill="#FFCC29"/>
<path d="M23.9448 2.95237C24.1414 3.21907 24.6163 3.89792 25.0176 4.47171C25.7301 5.50615 26.6145 6.77496 27.8429 8.53674C28.195 9.04588 29.1286 10.3955 29.9229 11.5269C31.9866 14.5009 32.5844 15.3576 33.1413 16.1496C33.4115 16.5375 34.5171 18.1296 35.5981 19.6893C36.679 21.2491 37.932 23.0432 38.3824 23.6897C38.8328 24.3281 39.5698 25.3868 40.0202 26.0334C40.4625 26.6799 40.8555 27.2052 40.8801 27.2052C40.9702 27.2052 40.8215 5.89927 40.8215 5.89927C40.8215 4.0213 39.7873 2.51597 37.6454 2.51597L23.5927 2.46748L23.9448 2.95237Z" fill="#FFCC29"/>
<path d="M21.7993 18.073V30.357H30.6027C35.4425 30.357 39.406 30.3408 39.406 30.3166C39.406 30.2923 39.0621 29.7913 38.6444 29.2013C37.6126 27.7709 34.4761 23.3907 32.1995 20.2146C31.1759 18.7923 29.9557 17.079 29.4725 16.4163C28.9976 15.7455 28.4079 14.9374 28.1705 14.606C27.933 14.2747 27.589 13.7978 27.4089 13.5392C26.0658 11.6401 21.8566 5.78901 21.832 5.78901C21.8156 5.78901 21.7993 11.3168 21.7993 18.073Z" fill="#FFCC29"/>
<path d="M5.67846 0.00260122C2.17242 -0.0908219 0.114258 2.34914 0.114258 4.59389L0.114258 16.3355V28.9023C0.114258 31.507 2.08969 33.226 4.23343 33.226L21.7337 33.2502H39.0426C41.6179 33.2502 43.8855 30.7732 43.8855 28.8952V16.4082V4.62451C43.8855 1.77694 41.1318 0.00260122 38.4118 0.00260122H22.2087H5.67846ZM39.2081 1.04208C40.7077 1.04208 42.8796 2.80778 42.8796 4.7572V28.7217C42.8693 30.2516 41.3076 32.3552 39.0426 32.3552H30.6026L22.0449 32.2562H4.30293C2.75159 32.2562 1.16248 30.8436 1.16248 28.9023C1.09696 28.5306 1.08058 24.813 1.09696 16.2546V5.10421C1.09696 2.62911 2.98946 1.04208 5.67846 1.04208H21.9675H39.2081Z" fill="#253D7F"/>
<path d="M6.26435 2.62911C5.98591 2.70993 5.42801 2.96396 5.11997 3.14459C4.55492 3.47593 3.97198 4.1244 3.66171 4.66534C3.17131 5.52033 3.04118 5.80845 3.17563 12.7488L3.20978 19.4065L4.53643 18.073C5.26526 17.3376 7.09965 15.5031 8.61465 13.9918C10.1215 12.4805 12.7911 9.80555 14.5436 8.05185C16.2879 6.29815 18.2615 4.32624 18.9167 3.66355L20.1205 2.47556L13.4463 2.48364C7.31256 2.48364 6.73113 2.49981 6.26435 2.62911Z" fill="#253D7F"/>
<path d="M23.9448 2.95237C24.1414 3.21906 24.6163 3.89792 25.0176 4.47171C25.7301 5.50615 26.6145 6.77496 27.8429 8.53674C28.195 9.04588 29.1286 10.3955 29.9229 11.5269C31.9866 14.5009 32.5844 15.3576 33.1413 16.1496C33.4115 16.5375 34.5171 18.1296 35.5981 19.6893C36.679 21.2491 37.932 23.0432 38.3824 23.6897C38.8328 24.3281 39.5698 25.3868 40.0202 26.0334C40.4624 26.6799 40.8555 27.2052 40.8801 27.2052C40.9702 27.2052 40.8215 5.89927 40.8215 5.89927C40.8215 4.0213 39.7873 2.51597 37.6454 2.51597L23.5927 2.46748L23.9448 2.95237Z" fill="#253D7F"/>
<path d="M21.7993 18.073V30.357H30.6026C35.4425 30.357 39.406 30.3408 39.406 30.3166C39.406 30.2923 39.0621 29.7913 38.6444 29.2013C37.6126 27.7709 34.4761 23.3907 32.1995 20.2146C31.1759 18.7923 29.9557 17.079 29.4725 16.4163C28.9976 15.7455 28.4079 14.9373 28.1705 14.606C27.933 14.2747 27.589 13.7978 27.4089 13.5392C26.0658 11.6401 21.8566 5.78901 21.832 5.78901C21.8156 5.78901 21.7993 11.3168 21.7993 18.073Z" fill="#253D7F"/>
</svg>
